<?xml version="1.0" encoding="UTF-8"?>
<svg width="579px" height="544px" viewBox="0 0 579 544" version="1.1" xmlns="http://www.w3.org/2000/svg" xmlns:xlink="http://www.w3.org/1999/xlink">
    <!-- Generator: Sketch 48.2 (47327) - http://www.bohemiancoding.com/sketch -->
    <title>Group 12 Copy 7</title>
    <desc>Created with Sketch.</desc>
    <defs></defs>
    <g id="Page-1" stroke="none" stroke-width="1" fill="none" fill-rule="evenodd">
        <g id="Group-14" transform="translate(-633.000000, 0.000000)">
            <g id="Group-12-Copy-7" transform="translate(633.000000, 0.000000)">
                <rect id="Rectangle-9" fill="#ABF1F9" x="0" y="0" width="579" height="544"></rect>
                <g id="Group-2" transform="translate(43.500000, 37.500000) rotate(23.000000) translate(-43.500000, -37.500000) translate(28.000000, 24.000000)" stroke="#3B8189">
                    <path d="M15.9535911,14 C19.2553624,14 20.8035978,16.4351997 23.5966976,20.6348115 C26.3897974,24.8344232 24.6395793,27.1535825 21.6155004,26.9920946 C20.1525664,26.6047093 17.9298827,25.168735 15.9855269,25.282199 C14.0411712,25.395663 10.6813296,26.9920946 9.39207672,26.9920946 C8.10282389,26.9920946 5.86125383,25.0186863 7.68992138,21.076507 C9.51858894,17.1343278 11.4403036,14 15.9535911,14 Z" id="Path-6"></path>
                    <ellipse id="Oval-11" transform="translate(10.500000, 6.000000) rotate(-13.000000) translate(-10.500000, -6.000000) " cx="10.5" cy="6" rx="3.5" ry="5"></ellipse>
                    <ellipse id="Oval-12" transform="translate(19.500000, 6.000000) rotate(14.000000) translate(-19.500000, -6.000000) " cx="19.5" cy="6" rx="3.5" ry="5"></ellipse>
                    <ellipse id="Oval-12-Copy" transform="translate(25.500000, 12.500000) rotate(23.000000) translate(-25.500000, -12.500000) " cx="25.5" cy="12.5" rx="3.5" ry="4.5"></ellipse>
                    <ellipse id="Oval-12-Copy-2" transform="translate(5.500000, 13.500000) rotate(-30.000000) translate(-5.500000, -13.500000) " cx="5.5" cy="13.5" rx="3.5" ry="4.5"></ellipse>
                </g>
                <g id="Group-2" transform="translate(483.542695, 45.483148) rotate(316.000000) translate(-483.542695, -45.483148) translate(468.042695, 31.983148)" stroke="#3B8189">
                    <path d="M15.9535911,14 C19.2553624,14 20.8035978,16.4351997 23.5966976,20.6348115 C26.3897974,24.8344232 24.6395793,27.1535825 21.6155004,26.9920946 C20.1525664,26.6047093 17.9298827,25.168735 15.9855269,25.282199 C14.0411712,25.395663 10.6813296,26.9920946 9.39207672,26.9920946 C8.10282389,26.9920946 5.86125383,25.0186863 7.68992138,21.076507 C9.51858894,17.1343278 11.4403036,14 15.9535911,14 Z" id="Path-6"></path>
                    <ellipse id="Oval-11" transform="translate(10.500000, 6.000000) rotate(-13.000000) translate(-10.500000, -6.000000) " cx="10.5" cy="6" rx="3.5" ry="5"></ellipse>
                    <ellipse id="Oval-12" transform="translate(19.500000, 6.000000) rotate(14.000000) translate(-19.500000, -6.000000) " cx="19.5" cy="6" rx="3.5" ry="5"></ellipse>
                    <ellipse id="Oval-12-Copy" transform="translate(25.500000, 12.500000) rotate(23.000000) translate(-25.500000, -12.500000) " cx="25.5" cy="12.5" rx="3.5" ry="4.5"></ellipse>
                    <ellipse id="Oval-12-Copy-2" transform="translate(5.500000, 13.500000) rotate(-30.000000) translate(-5.500000, -13.500000) " cx="5.5" cy="13.5" rx="3.5" ry="4.5"></ellipse>
                </g>
                <g id="Group-2" transform="translate(106.542695, 366.483148) rotate(23.000000) translate(-106.542695, -366.483148) translate(91.042695, 352.983148)" stroke="#3B8189">
                    <path d="M15.9535911,14 C19.2553624,14 20.8035978,16.4351997 23.5966976,20.6348115 C26.3897974,24.8344232 24.6395793,27.1535825 21.6155004,26.9920946 C20.1525664,26.6047093 17.9298827,25.168735 15.9855269,25.282199 C14.0411712,25.395663 10.6813296,26.9920946 9.39207672,26.9920946 C8.10282389,26.9920946 5.86125383,25.0186863 7.68992138,21.076507 C9.51858894,17.1343278 11.4403036,14 15.9535911,14 Z" id="Path-6"></path>
                    <ellipse id="Oval-11" transform="translate(10.500000, 6.000000) rotate(-13.000000) translate(-10.500000, -6.000000) " cx="10.5" cy="6" rx="3.5" ry="5"></ellipse>
                    <ellipse id="Oval-12" transform="translate(19.500000, 6.000000) rotate(14.000000) translate(-19.500000, -6.000000) " cx="19.5" cy="6" rx="3.5" ry="5"></ellipse>
                    <ellipse id="Oval-12-Copy" transform="translate(25.500000, 12.500000) rotate(23.000000) translate(-25.500000, -12.500000) " cx="25.5" cy="12.5" rx="3.5" ry="4.5"></ellipse>
                    <ellipse id="Oval-12-Copy-2" transform="translate(5.500000, 13.500000) rotate(-30.000000) translate(-5.500000, -13.500000) " cx="5.5" cy="13.5" rx="3.5" ry="4.5"></ellipse>
                </g>
                <g id="Group-2" transform="translate(386.542695, 182.483148) rotate(23.000000) translate(-386.542695, -182.483148) translate(371.042695, 168.983148)" stroke="#3B8189">
                    <path d="M15.9535911,14 C19.2553624,14 20.8035978,16.4351997 23.5966976,20.6348115 C26.3897974,24.8344232 24.6395793,27.1535825 21.6155004,26.9920946 C20.1525664,26.6047093 17.9298827,25.168735 15.9855269,25.282199 C14.0411712,25.395663 10.6813296,26.9920946 9.39207672,26.9920946 C8.10282389,26.9920946 5.86125383,25.0186863 7.68992138,21.076507 C9.51858894,17.1343278 11.4403036,14 15.9535911,14 Z" id="Path-6"></path>
                    <ellipse id="Oval-11" transform="translate(10.500000, 6.000000) rotate(-13.000000) translate(-10.500000, -6.000000) " cx="10.5" cy="6" rx="3.5" ry="5"></ellipse>
                    <ellipse id="Oval-12" transform="translate(19.500000, 6.000000) rotate(14.000000) translate(-19.500000, -6.000000) " cx="19.5" cy="6" rx="3.5" ry="5"></ellipse>
                    <ellipse id="Oval-12-Copy" transform="translate(25.500000, 12.500000) rotate(23.000000) translate(-25.500000, -12.500000) " cx="25.5" cy="12.5" rx="3.5" ry="4.5"></ellipse>
                    <ellipse id="Oval-12-Copy-2" transform="translate(5.500000, 13.500000) rotate(-30.000000) translate(-5.500000, -13.500000) " cx="5.5" cy="13.5" rx="3.5" ry="4.5"></ellipse>
                </g>
                <g id="Group-2" transform="translate(309.542695, 304.483148) rotate(23.000000) translate(-309.542695, -304.483148) translate(294.042695, 290.983148)" stroke="#3B8189">
                    <path d="M15.9535911,14 C19.2553624,14 20.8035978,16.4351997 23.5966976,20.6348115 C26.3897974,24.8344232 24.6395793,27.1535825 21.6155004,26.9920946 C20.1525664,26.6047093 17.9298827,25.168735 15.9855269,25.282199 C14.0411712,25.395663 10.6813296,26.9920946 9.39207672,26.9920946 C8.10282389,26.9920946 5.86125383,25.0186863 7.68992138,21.076507 C9.51858894,17.1343278 11.4403036,14 15.9535911,14 Z" id="Path-6"></path>
                    <ellipse id="Oval-11" transform="translate(10.500000, 6.000000) rotate(-13.000000) translate(-10.500000, -6.000000) " cx="10.5" cy="6" rx="3.5" ry="5"></ellipse>
                    <ellipse id="Oval-12" transform="translate(19.500000, 6.000000) rotate(14.000000) translate(-19.500000, -6.000000) " cx="19.5" cy="6" rx="3.5" ry="5"></ellipse>
                    <ellipse id="Oval-12-Copy" transform="translate(25.500000, 12.500000) rotate(23.000000) translate(-25.500000, -12.500000) " cx="25.5" cy="12.5" rx="3.5" ry="4.5"></ellipse>
                    <ellipse id="Oval-12-Copy-2" transform="translate(5.500000, 13.500000) rotate(-30.000000) translate(-5.500000, -13.500000) " cx="5.5" cy="13.5" rx="3.5" ry="4.5"></ellipse>
                </g>
                <g id="Group-2" transform="translate(515.542695, 468.483148) rotate(101.000000) translate(-515.542695, -468.483148) translate(500.042695, 454.983148)" stroke="#3B8189">
                    <path d="M15.9535911,14 C19.2553624,14 20.8035978,16.4351997 23.5966976,20.6348115 C26.3897974,24.8344232 24.6395793,27.1535825 21.6155004,26.9920946 C20.1525664,26.6047093 17.9298827,25.168735 15.9855269,25.282199 C14.0411712,25.395663 10.6813296,26.9920946 9.39207672,26.9920946 C8.10282389,26.9920946 5.86125383,25.0186863 7.68992138,21.076507 C9.51858894,17.1343278 11.4403036,14 15.9535911,14 Z" id="Path-6"></path>
                    <ellipse id="Oval-11" transform="translate(10.500000, 6.000000) rotate(-13.000000) translate(-10.500000, -6.000000) " cx="10.5" cy="6" rx="3.5" ry="5"></ellipse>
                    <ellipse id="Oval-12" transform="translate(19.500000, 6.000000) rotate(14.000000) translate(-19.500000, -6.000000) " cx="19.5" cy="6" rx="3.5" ry="5"></ellipse>
                    <ellipse id="Oval-12-Copy" transform="translate(25.500000, 12.500000) rotate(23.000000) translate(-25.500000, -12.500000) " cx="25.5" cy="12.5" rx="3.5" ry="4.5"></ellipse>
                    <ellipse id="Oval-12-Copy-2" transform="translate(5.500000, 13.500000) rotate(-30.000000) translate(-5.500000, -13.500000) " cx="5.5" cy="13.5" rx="3.5" ry="4.5"></ellipse>
                </g>
                <g id="Group-2" transform="translate(107.542695, 211.483148) rotate(-35.000000) translate(-107.542695, -211.483148) translate(92.042695, 197.983148)" stroke="#3B8189">
                    <path d="M15.9535911,14 C19.2553624,14 20.8035978,16.4351997 23.5966976,20.6348115 C26.3897974,24.8344232 24.6395793,27.1535825 21.6155004,26.9920946 C20.1525664,26.6047093 17.9298827,25.168735 15.9855269,25.282199 C14.0411712,25.395663 10.6813296,26.9920946 9.39207672,26.9920946 C8.10282389,26.9920946 5.86125383,25.0186863 7.68992138,21.076507 C9.51858894,17.1343278 11.4403036,14 15.9535911,14 Z" id="Path-6"></path>
                    <ellipse id="Oval-11" transform="translate(10.500000, 6.000000) rotate(-13.000000) translate(-10.500000, -6.000000) " cx="10.5" cy="6" rx="3.5" ry="5"></ellipse>
                    <ellipse id="Oval-12" transform="translate(19.500000, 6.000000) rotate(14.000000) translate(-19.500000, -6.000000) " cx="19.5" cy="6" rx="3.5" ry="5"></ellipse>
                    <ellipse id="Oval-12-Copy" transform="translate(25.500000, 12.500000) rotate(23.000000) translate(-25.500000, -12.500000) " cx="25.5" cy="12.5" rx="3.5" ry="4.5"></ellipse>
                    <ellipse id="Oval-12-Copy-2" transform="translate(5.500000, 13.500000) rotate(-30.000000) translate(-5.500000, -13.500000) " cx="5.5" cy="13.5" rx="3.5" ry="4.5"></ellipse>
                </g>
                <g id="Group-2" transform="translate(222.542695, 101.483148) rotate(154.000000) translate(-222.542695, -101.483148) translate(207.042695, 87.983148)" stroke="#3B8189">
                    <path d="M15.9535911,14 C19.2553624,14 20.8035978,16.4351997 23.5966976,20.6348115 C26.3897974,24.8344232 24.6395793,27.1535825 21.6155004,26.9920946 C20.1525664,26.6047093 17.9298827,25.168735 15.9855269,25.282199 C14.0411712,25.395663 10.6813296,26.9920946 9.39207672,26.9920946 C8.10282389,26.9920946 5.86125383,25.0186863 7.68992138,21.076507 C9.51858894,17.1343278 11.4403036,14 15.9535911,14 Z" id="Path-6"></path>
                    <ellipse id="Oval-11" transform="translate(10.500000, 6.000000) rotate(-13.000000) translate(-10.500000, -6.000000) " cx="10.5" cy="6" rx="3.5" ry="5"></ellipse>
                    <ellipse id="Oval-12" transform="translate(19.500000, 6.000000) rotate(14.000000) translate(-19.500000, -6.000000) " cx="19.5" cy="6" rx="3.5" ry="5"></ellipse>
                    <ellipse id="Oval-12-Copy" transform="translate(25.500000, 12.500000) rotate(23.000000) translate(-25.500000, -12.500000) " cx="25.5" cy="12.5" rx="3.5" ry="4.5"></ellipse>
                    <ellipse id="Oval-12-Copy-2" transform="translate(5.500000, 13.500000) rotate(-30.000000) translate(-5.500000, -13.500000) " cx="5.5" cy="13.5" rx="3.5" ry="4.5"></ellipse>
                </g>
                <g id="Group-2" transform="translate(476.542695, 348.483148) rotate(-35.000000) translate(-476.542695, -348.483148) translate(461.042695, 334.983148)" stroke="#3B8189">
                    <path d="M15.9535911,14 C19.2553624,14 20.8035978,16.4351997 23.5966976,20.6348115 C26.3897974,24.8344232 24.6395793,27.1535825 21.6155004,26.9920946 C20.1525664,26.6047093 17.9298827,25.168735 15.9855269,25.282199 C14.0411712,25.395663 10.6813296,26.9920946 9.39207672,26.9920946 C8.10282389,26.9920946 5.86125383,25.0186863 7.68992138,21.076507 C9.51858894,17.1343278 11.4403036,14 15.9535911,14 Z" id="Path-6"></path>
                    <ellipse id="Oval-11" transform="translate(10.500000, 6.000000) rotate(-13.000000) translate(-10.500000, -6.000000) " cx="10.5" cy="6" rx="3.5" ry="5"></ellipse>
                    <ellipse id="Oval-12" transform="translate(19.500000, 6.000000) rotate(14.000000) translate(-19.500000, -6.000000) " cx="19.5" cy="6" rx="3.5" ry="5"></ellipse>
                    <ellipse id="Oval-12-Copy" transform="translate(25.500000, 12.500000) rotate(23.000000) translate(-25.500000, -12.500000) " cx="25.5" cy="12.5" rx="3.5" ry="4.5"></ellipse>
                    <ellipse id="Oval-12-Copy-2" transform="translate(5.500000, 13.500000) rotate(-30.000000) translate(-5.500000, -13.500000) " cx="5.5" cy="13.5" rx="3.5" ry="4.5"></ellipse>
                </g>
                <g id="Group-2" transform="translate(191.849318, 494.928472) rotate(154.000000) translate(-191.849318, -494.928472) translate(176.349318, 481.428472)" stroke="#3B8189">
                    <path d="M15.9535911,14 C19.2553624,14 20.8035978,16.4351997 23.5966976,20.6348115 C26.3897974,24.8344232 24.6395793,27.1535825 21.6155004,26.9920946 C20.1525664,26.6047093 17.9298827,25.168735 15.9855269,25.282199 C14.0411712,25.395663 10.6813296,26.9920946 9.39207672,26.9920946 C8.10282389,26.9920946 5.86125383,25.0186863 7.68992138,21.076507 C9.51858894,17.1343278 11.4403036,14 15.9535911,14 Z" id="Path-6"></path>
                    <ellipse id="Oval-11" transform="translate(10.500000, 6.000000) rotate(-13.000000) translate(-10.500000, -6.000000) " cx="10.5" cy="6" rx="3.5" ry="5"></ellipse>
                    <ellipse id="Oval-12" transform="translate(19.500000, 6.000000) rotate(14.000000) translate(-19.500000, -6.000000) " cx="19.5" cy="6" rx="3.5" ry="5"></ellipse>
                    <ellipse id="Oval-12-Copy" transform="translate(25.500000, 12.500000) rotate(23.000000) translate(-25.500000, -12.500000) " cx="25.5" cy="12.5" rx="3.5" ry="4.5"></ellipse>
                    <ellipse id="Oval-12-Copy-2" transform="translate(5.500000, 13.500000) rotate(-30.000000) translate(-5.500000, -13.500000) " cx="5.5" cy="13.5" rx="3.5" ry="4.5"></ellipse>
                </g>
                <path d="M65.726322,100.878955 C70.2591446,100.878955 75.3724048,100.878955 81.0661026,100.878955 C81.9251961,98.908815 83.3141149,95.4113551 87.3895665,96.6345226 C91.465018,97.8576901 87.3895665,103.403977 86.0376448,103.366117 C88.0701095,104.250477 91.2752806,106.963048 87.3895665,109.542564 C84.7990904,111.262242 82.6912691,110.287394 81.0661026,106.618021 L65.726322,106.618021 C62.8946566,110.783468 60.2646497,111.547965 57.836301,108.91151 C55.4079523,106.275055 56.0722909,104.402303 59.8293167,103.293255 C56.5761032,99.7549864 56.5761032,97.5354091 59.8293167,96.6345226 C63.0825302,95.7336361 65.0481986,97.1484469 65.726322,100.878955 Z" id="Mask" stroke="#3B8189" transform="translate(72.812498, 103.408016) rotate(-27.000000) translate(-72.812498, -103.408016) "></path>
                <path d="M177.726322,283.188648 C182.259145,283.188648 187.372405,283.188648 193.066103,283.188648 C193.925196,281.218508 195.314115,277.721048 199.389566,278.944215 C203.465018,280.167383 199.389566,285.71367 198.037645,285.67581 C200.07011,286.56017 203.275281,289.272741 199.389566,291.852257 C196.79909,293.571935 194.691269,292.597087 193.066103,288.927713 L177.726322,288.927713 C174.894657,293.093161 172.26465,293.857657 169.836301,291.221203 C167.407952,288.584748 168.072291,286.711996 171.829317,285.602947 C168.576103,282.064679 168.576103,279.845102 171.829317,278.944215 C175.08253,278.043329 177.048199,279.45814 177.726322,283.188648 Z" id="Mask" stroke="#3B8189" transform="translate(184.812498, 285.717709) rotate(33.000000) translate(-184.812498, -285.717709) "></path>
                <path d="M489.726322,228.903074 C494.259145,228.903074 499.372405,228.903074 505.066103,228.903074 C505.925196,226.932934 507.314115,223.435474 511.389566,224.658642 C515.465018,225.881809 511.389566,231.428096 510.037645,231.390237 C512.07011,232.274597 515.275281,234.987167 511.389566,237.566684 C508.79909,239.286362 506.691269,238.311514 505.066103,234.64214 L489.726322,234.64214 C486.894657,238.807588 484.26465,239.572084 481.836301,236.935629 C479.407952,234.299175 480.072291,232.426423 483.829317,231.317374 C480.576103,227.779106 480.576103,225.559528 483.829317,224.658642 C487.08253,223.757755 489.048199,225.172566 489.726322,228.903074 Z" id="Mask" stroke="#3B8189" transform="translate(496.812498, 231.432135) rotate(272.000000) translate(-496.812498, -231.432135) "></path>
                <path d="M65.055284,511.454258 C69.5881067,511.454258 74.7013669,511.454258 80.3950646,511.454258 C81.2541582,509.484119 82.643077,505.986659 86.7185286,507.209826 C90.7939801,508.432994 86.7185286,513.979281 85.3666069,513.941421 C87.3990716,514.825781 90.6042427,517.538351 86.7185286,520.117868 C84.1280525,521.837546 82.0202312,520.862698 80.3950646,517.193324 L65.055284,517.193324 C62.2236187,521.358772 59.5936117,522.123268 57.1652631,519.486814 C54.7369144,516.850359 55.401253,514.977607 59.1582788,513.868558 C55.9050653,510.33029 55.9050653,508.110713 59.1582788,507.209826 C62.4114922,506.30894 64.3771607,507.72375 65.055284,511.454258 Z" id="Mask" stroke="#3B8189" transform="translate(72.141460, 513.983320) rotate(7.000000) translate(-72.141460, -513.983320) "></path>
                <path d="M252.726322,369.188648 C257.259145,369.188648 262.372405,369.188648 268.066103,369.188648 C268.925196,367.218508 270.314115,363.721048 274.389566,364.944215 C278.465018,366.167383 274.389566,371.71367 273.037645,371.67581 C275.07011,372.56017 278.275281,375.272741 274.389566,377.852257 C271.79909,379.571935 269.691269,378.597087 268.066103,374.927713 L252.726322,374.927713 C249.894657,379.093161 247.26465,379.857657 244.836301,377.221203 C242.407952,374.584748 243.072291,372.711996 246.829317,371.602947 C243.576103,368.064679 243.576103,365.845102 246.829317,364.944215 C250.08253,364.043329 252.048199,365.45814 252.726322,369.188648 Z" id="Mask" stroke="#3B8189" transform="translate(259.812498, 371.717709) rotate(7.000000) translate(-259.812498, -371.717709) "></path>
                <path d="M387.726322,470.188648 C392.259145,470.188648 397.372405,470.188648 403.066103,470.188648 C403.925196,468.218508 405.314115,464.721048 409.389566,465.944215 C413.465018,467.167383 409.389566,472.71367 408.037645,472.67581 C410.07011,473.56017 413.275281,476.272741 409.389566,478.852257 C406.79909,480.571935 404.691269,479.597087 403.066103,475.927713 L387.726322,475.927713 C384.894657,480.093161 382.26465,480.857657 379.836301,478.221203 C377.407952,475.584748 378.072291,473.711996 381.829317,472.602947 C378.576103,469.064679 378.576103,466.845102 381.829317,465.944215 C385.08253,465.043329 387.048199,466.45814 387.726322,470.188648 Z" id="Mask-Copy-2" stroke="#3B8189" transform="translate(394.812498, 472.717709) rotate(33.000000) translate(-394.812498, -472.717709) "></path>
                <path d="M65.726322,100.878955 C70.2591446,100.878955 75.3724048,100.878955 81.0661026,100.878955 C81.9251961,98.908815 83.3141149,95.4113551 87.3895665,96.6345226 C91.465018,97.8576901 87.3895665,103.403977 86.0376448,103.366117 C88.0701095,104.250477 91.2752806,106.963048 87.3895665,109.542564 C84.7990904,111.262242 82.6912691,110.287394 81.0661026,106.618021 L65.726322,106.618021 C62.8946566,110.783468 60.2646497,111.547965 57.836301,108.91151 C55.4079523,106.275055 56.0722909,104.402303 59.8293167,103.293255 C56.5761032,99.7549864 56.5761032,97.5354091 59.8293167,96.6345226 C63.0825302,95.7336361 65.0481986,97.1484469 65.726322,100.878955 Z" id="Mask" stroke="#3B8189" transform="translate(72.812498, 103.408016) rotate(-27.000000) translate(-72.812498, -103.408016) "></path>
                <path d="M379.726322,67.1886476 C384.259145,67.1886476 389.372405,67.1886476 395.066103,67.1886476 C395.925196,65.2185077 397.314115,61.7210478 401.389566,62.9442153 C405.465018,64.1673829 401.389566,69.7136698 400.037645,69.6758101 C402.07011,70.5601701 405.275281,73.2727406 401.389566,75.8522572 C398.79909,77.571935 396.691269,76.597087 395.066103,72.9277134 L379.726322,72.9277134 C376.894657,77.093161 374.26465,77.8576575 371.836301,75.2212028 C369.407952,72.584748 370.072291,70.7119962 373.829317,69.6029472 C370.576103,66.0646791 370.576103,63.8451018 373.829317,62.9442153 C377.08253,62.0433289 379.048199,63.4581396 379.726322,67.1886476 Z" id="Mask-Copy" stroke="#3B8189" transform="translate(386.812498, 69.717709) rotate(-27.000000) translate(-386.812498, -69.717709) "></path>
                <path d="M159.726322,145.188648 C164.259145,145.188648 169.372405,145.188648 175.066103,145.188648 C175.925196,143.218508 177.314115,139.721048 181.389566,140.944215 C185.465018,142.167383 181.389566,147.71367 180.037645,147.67581 C182.07011,148.56017 185.275281,151.272741 181.389566,153.852257 C178.79909,155.571935 176.691269,154.597087 175.066103,150.927713 L159.726322,150.927713 C156.894657,155.093161 154.26465,155.857657 151.836301,153.221203 C149.407952,150.584748 150.072291,148.711996 153.829317,147.602947 C150.576103,144.064679 150.576103,141.845102 153.829317,140.944215 C157.08253,140.043329 159.048199,141.45814 159.726322,145.188648 Z" id="Mask" stroke="#3B8189" transform="translate(166.812498, 147.717709) rotate(272.000000) translate(-166.812498, -147.717709) "></path>
                <g id="Group-13" transform="translate(217.000000, 221.000000)" stroke="#3B8189">
                    <path d="M24.9433989,20 C36.9861197,20 50,16.6881839 50,14.5096287 C50,13.5632588 45.7701609,10 45.125644,3.55869293 C38.205937,-2.01174127 7.34377738,-0.282591433 4.82493954,3.55869293 C3.64069674,10.783413 4.25570537e-17,13.5342317 0,14.5096287 C4.25570537e-17,16.6881839 12.9006781,20 24.9433989,20 Z" id="Oval-14"></path>
                    <ellipse id="Oval-13" cx="25.5" cy="5" rx="20.5" ry="4"></ellipse>
                    <path d="M1,14 C16.8373086,19.555272 32.9920499,19.0784364 49,14.0881393" id="Path-7"></path>
                    <path d="M19,16 C21.1284352,9.40497239 20.1307728,9.3126913 22,15.8503514" id="Path-12"></path>
                    <path d="M20,14 C20.6666667,13.6666667 21.3333333,13.3333333 22,13" id="Path-22"></path>
                    <path d="M23.0239161,13 C22.7215439,15.2536918 25.3944743,16.0195417 24.9499925,13.0785242" id="Path-23"></path>
                    <path d="M27,16 C28.2538261,9.31181198 27.2587774,9.45259789 30,15.7080938" id="Path-24"></path>
                    <path d="M28,14 C28.3333333,13.6666667 28.6666667,13.3333333 29,13" id="Path-25"></path>
                    <path d="M31,13.2038259 C31.5572935,15.8003075 33.749352,15.4499135 32.7360792,13" id="Path-26"></path>
                </g>
                <g id="Group-13-Copy" transform="translate(24.000000, 261.000000)" stroke="#3B8189">
                    <path d="M24.9433989,20 C36.9861197,20 50,16.6881839 50,14.5096287 C50,13.5632588 45.7701609,10 45.125644,3.55869293 C38.205937,-2.01174127 7.34377738,-0.282591433 4.82493954,3.55869293 C3.64069674,10.783413 4.25570537e-17,13.5342317 0,14.5096287 C4.25570537e-17,16.6881839 12.9006781,20 24.9433989,20 Z" id="Oval-14"></path>
                    <ellipse id="Oval-13" cx="25.5" cy="5" rx="20.5" ry="4"></ellipse>
                    <path d="M1,14 C16.8373086,19.555272 32.9920499,19.0784364 49,14.0881393" id="Path-7"></path>
                    <path d="M19,16 C21.1284352,9.40497239 20.1307728,9.3126913 22,15.8503514" id="Path-12"></path>
                    <path d="M20,14 C20.6666667,13.6666667 21.3333333,13.3333333 22,13" id="Path-22"></path>
                    <path d="M23.0239161,13 C22.7215439,15.2536918 25.3944743,16.0195417 24.9499925,13.0785242" id="Path-23"></path>
                    <path d="M27,16 C28.2538261,9.31181198 27.2587774,9.45259789 30,15.7080938" id="Path-24"></path>
                    <path d="M28,14 C28.3333333,13.6666667 28.6666667,13.3333333 29,13" id="Path-25"></path>
                    <path d="M31,13.2038259 C31.5572935,15.8003075 33.749352,15.4499135 32.7360792,13" id="Path-26"></path>
                </g>
                <g id="Group-13-Copy-2" transform="translate(128.000000, 25.000000)" stroke="#3B8189">
                    <path d="M24.9433989,20 C36.9861197,20 50,16.6881839 50,14.5096287 C50,13.5632588 45.7701609,10 45.125644,3.55869293 C38.205937,-2.01174127 7.34377738,-0.282591433 4.82493954,3.55869293 C3.64069674,10.783413 4.25570537e-17,13.5342317 0,14.5096287 C4.25570537e-17,16.6881839 12.9006781,20 24.9433989,20 Z" id="Oval-14"></path>
                    <ellipse id="Oval-13" cx="25.5" cy="5" rx="20.5" ry="4"></ellipse>
                    <path d="M1,14 C16.8373086,19.555272 32.9920499,19.0784364 49,14.0881393" id="Path-7"></path>
                    <path d="M19,16 C21.1284352,9.40497239 20.1307728,9.3126913 22,15.8503514" id="Path-12"></path>
                    <path d="M20,14 C20.6666667,13.6666667 21.3333333,13.3333333 22,13" id="Path-22"></path>
                    <path d="M23.0239161,13 C22.7215439,15.2536918 25.3944743,16.0195417 24.9499925,13.0785242" id="Path-23"></path>
                    <path d="M27,16 C28.2538261,9.31181198 27.2587774,9.45259789 30,15.7080938" id="Path-24"></path>
                    <path d="M28,14 C28.3333333,13.6666667 28.6666667,13.3333333 29,13" id="Path-25"></path>
                    <path d="M31,13.2038259 C31.5572935,15.8003075 33.749352,15.4499135 32.7360792,13" id="Path-26"></path>
                </g>
                <g id="Group-13-Copy-3" transform="translate(387.000000, 343.000000)" stroke="#3B8189">
                    <path d="M24.9433989,20 C36.9861197,20 50,16.6881839 50,14.5096287 C50,13.5632588 45.7701609,10 45.125644,3.55869293 C38.205937,-2.01174127 7.34377738,-0.282591433 4.82493954,3.55869293 C3.64069674,10.783413 4.25570537e-17,13.5342317 0,14.5096287 C4.25570537e-17,16.6881839 12.9006781,20 24.9433989,20 Z" id="Oval-14"></path>
                    <ellipse id="Oval-13" cx="25.5" cy="5" rx="20.5" ry="4"></ellipse>
                    <path d="M1,14 C16.8373086,19.555272 32.9920499,19.0784364 49,14.0881393" id="Path-7"></path>
                    <path d="M19,16 C21.1284352,9.40497239 20.1307728,9.3126913 22,15.8503514" id="Path-12"></path>
                    <path d="M20,14 C20.6666667,13.6666667 21.3333333,13.3333333 22,13" id="Path-22"></path>
                    <path d="M23.0239161,13 C22.7215439,15.2536918 25.3944743,16.0195417 24.9499925,13.0785242" id="Path-23"></path>
                    <path d="M27,16 C28.2538261,9.31181198 27.2587774,9.45259789 30,15.7080938" id="Path-24"></path>
                    <path d="M28,14 C28.3333333,13.6666667 28.6666667,13.3333333 29,13" id="Path-25"></path>
                    <path d="M31,13.2038259 C31.5572935,15.8003075 33.749352,15.4499135 32.7360792,13" id="Path-26"></path>
                </g>
                <g id="Group-13-Copy-4" transform="translate(497.000000, 100.000000)" stroke="#3B8189">
                    <path d="M24.9433989,20 C36.9861197,20 50,16.6881839 50,14.5096287 C50,13.5632588 45.7701609,10 45.125644,3.55869293 C38.205937,-2.01174127 7.34377738,-0.282591433 4.82493954,3.55869293 C3.64069674,10.783413 4.25570537e-17,13.5342317 0,14.5096287 C4.25570537e-17,16.6881839 12.9006781,20 24.9433989,20 Z" id="Oval-14"></path>
                    <ellipse id="Oval-13" cx="25.5" cy="5" rx="20.5" ry="4"></ellipse>
                    <path d="M1,14 C16.8373086,19.555272 32.9920499,19.0784364 49,14.0881393" id="Path-7"></path>
                    <path d="M19,16 C21.1284352,9.40497239 20.1307728,9.3126913 22,15.8503514" id="Path-12"></path>
                    <path d="M20,14 C20.6666667,13.6666667 21.3333333,13.3333333 22,13" id="Path-22"></path>
                    <path d="M23.0239161,13 C22.7215439,15.2536918 25.3944743,16.0195417 24.9499925,13.0785242" id="Path-23"></path>
                    <path d="M27,16 C28.2538261,9.31181198 27.2587774,9.45259789 30,15.7080938" id="Path-24"></path>
                    <path d="M28,14 C28.3333333,13.6666667 28.6666667,13.3333333 29,13" id="Path-25"></path>
                    <path d="M31,13.2038259 C31.5572935,15.8003075 33.749352,15.4499135 32.7360792,13" id="Path-26"></path>
                </g>
                <g id="Group-13-Copy-5" transform="translate(319.000000, 513.000000)" stroke="#3B8189">
                    <path d="M24.9433989,20 C36.9861197,20 50,16.6881839 50,14.5096287 C50,13.5632588 45.7701609,10 45.125644,3.55869293 C38.205937,-2.01174127 7.34377738,-0.282591433 4.82493954,3.55869293 C3.64069674,10.783413 4.25570537e-17,13.5342317 0,14.5096287 C4.25570537e-17,16.6881839 12.9006781,20 24.9433989,20 Z" id="Oval-14"></path>
                    <ellipse id="Oval-13" cx="25.5" cy="5" rx="20.5" ry="4"></ellipse>
                    <path d="M1,14 C16.8373086,19.555272 32.9920499,19.0784364 49,14.0881393" id="Path-7"></path>
                    <path d="M19,16 C21.1284352,9.40497239 20.1307728,9.3126913 22,15.8503514" id="Path-12"></path>
                    <path d="M20,14 C20.6666667,13.6666667 21.3333333,13.3333333 22,13" id="Path-22"></path>
                    <path d="M23.0239161,13 C22.7215439,15.2536918 25.3944743,16.0195417 24.9499925,13.0785242" id="Path-23"></path>
                    <path d="M27,16 C28.2538261,9.31181198 27.2587774,9.45259789 30,15.7080938" id="Path-24"></path>
                    <path d="M28,14 C28.3333333,13.6666667 28.6666667,13.3333333 29,13" id="Path-25"></path>
                    <path d="M31,13.2038259 C31.5572935,15.8003075 33.749352,15.4499135 32.7360792,13" id="Path-26"></path>
                </g>
            </g>
        </g>
    </g>
</svg>