<?xml version="1.0" encoding="UTF-8"?>
<svg width="185px" height="211px" viewBox="0 0 185 211" version="1.1" xmlns="http://www.w3.org/2000/svg" xmlns:xlink="http://www.w3.org/1999/xlink">
    <!-- Generator: Sketch 48.2 (47327) - http://www.bohemiancoding.com/sketch -->
    <title>Group 5</title>
    <desc>Created with Sketch.</desc>
    <defs>
        <polygon id="path-1" points="0.495332014 58.986976 78.8569857 0.0407935176 155.770709 58.986976 138.773721 163.367456 21.8444688 163.367456"></polygon>
        <polygon id="path-3" points="108 8.18348233 6.59425536 85 1.13686838e-13 76.8165177 101.405745 0"></polygon>
        <polygon id="path-4" points="85.3683536 13 171 78.1723426 169.356383 89 76 19.2337221"></polygon>
        <filter x="0.0%" y="0.0%" width="100.0%" height="100.0%" filterUnits="objectBoundingBox" id="filter-5">
            <feOffset dx="0" dy="0" in="SourceAlpha" result="shadowOffsetOuter1"></feOffset>
            <feColorMatrix values="0 0 0 0 0.127471301   0 0 0 0 0.0310194632   0 0 0 0 0.00232621041  0 0 0 1 0" type="matrix" in="shadowOffsetOuter1"></feColorMatrix>
        </filter>
        <polygon id="path-6" points="93 32.0681175 16.9608248 89 15 78.8237088 84.4168403 26"></polygon>
        <filter x="0.0%" y="0.0%" width="100.0%" height="100.0%" filterUnits="objectBoundingBox" id="filter-7">
            <feOffset dx="0" dy="0" in="SourceAlpha" result="shadowOffsetOuter1"></feOffset>
            <feColorMatrix values="0 0 0 0 0.127471301   0 0 0 0 0.0310194632   0 0 0 0 0.00232621041  0 0 0 1 0" type="matrix" in="shadowOffsetOuter1"></feColorMatrix>
        </filter>
        <polygon id="path-8" points="83.5942554 -1.13686838e-13 185 76.8165177 178.405745 85 77 8.18348233"></polygon>
        <path d="M34.4656069,80.6214767 C42.4240061,80.6214767 53.114629,80.6214767 57.6412423,80.6214767 C59.5734127,72.7189993 62,64.4177456 62,49.6381278 C62,22.0210726 55.2009218,0 31,0 C6.79907821,0 0,22.0210726 0,49.6381278 C0,62.2304457 4.68416071,76.0934749 6.03602941,80.6214767 C25.9640573,80.6214767 25.1512201,80.6214767 34.4656069,80.6214767 Z" id="path-9"></path>
        <path d="M25.3564022,16.5535968 L72.2346979,28.4061701 L72.3020761,28.4720826 C73.540906,25.6828555 76.6209481,24.0891919 80.2244286,24.0891919 C84.9214298,24.0891919 88.1673635,26.7968488 88.1673635,31.3305296 C88.1673635,34.8651262 86.1944071,37.8779628 83.0990425,39.034187 L83.1756264,39.109105 C82.1842408,39.5334418 81.5897751,39.9180084 81.3922292,40.2628046 C81.2674858,40.4805316 81.2215136,40.8211598 81.2543126,41.2846891 C81.2865329,41.4822108 81.3117774,41.684119 81.3298501,41.8903176 C81.3478199,41.9964214 81.3686129,42.1069301 81.3922292,42.2218438 L81.3527411,42.2264148 C81.3599746,42.3743157 81.3636251,42.5243035 81.3636251,42.6763449 C81.3636251,47.2100257 78.1176914,50.8853002 73.4206903,50.8853002 C69.0636126,50.8853002 65.4718,47.7227382 64.9747389,43.6461014 L64.0369497,42.2218438 L21.8622769,31.1240265 L21.6513469,30.9264645 C19.8347334,33.4971555 15.7187054,35.2882852 12.1870454,35.2882852 C7.49004429,35.2882852 2.52264567,32.0968195 2.52264567,27.5631388 C2.52264567,23.029458 4.55138739,21.0481557 9.00718083,19.7673933 C9.0188894,19.7640279 9.03061324,19.7606992 9.04235219,19.7574074 C8.94252533,19.6848053 8.8472771,19.6060758 8.75703734,19.5207366 C7.18149871,18.030758 7.08424169,14.6004208 7.08424169,12.3032106 C7.08424169,7.76952983 12.4371438,5.86950069 17.134145,5.86950069 C21.8311461,5.86950069 25.2560171,8.25333858 25.2560171,12.7870194 C25.2560171,13.9967833 25.8583113,15.524194 25.3564022,16.5535968 Z" id="path-11"></path>
        <path d="M13.5058634,6.53159379 C20.074458,6.53159379 27.484175,6.53159379 35.7350145,6.53159379 C36.9799424,3.67662874 38.9926495,-1.39160316 44.8984594,0.380910847 C50.8042694,2.15342486 44.8984594,10.1906487 42.9393655,10.1357855 C45.8846466,11.4173275 50.5293174,15.3481619 44.8984594,19.0861857 C41.1445541,21.5782016 38.0900725,20.165532 35.7350145,14.8481769 L13.5058634,14.8481769 C9.40244645,20.8844017 5.59125618,21.9922472 2.07229261,18.1717134 C-1.44667097,14.3511796 -0.483966049,11.6373414 4.96040737,10.0301986 C0.246117404,4.90283083 0.246117404,1.68640157 4.96040737,0.380910847 C9.67469734,-0.92457988 12.5231827,1.12564777 13.5058634,6.53159379 Z" id="path-13"></path>
    </defs>
    <g id="Page-1" stroke="none" stroke-width="1" fill="none" fill-rule="evenodd">
        <g id="Group-5">
            <g id="Path-16-+-Path-16-Copy-+-Path-16-Copy-2-+-Path-16-Copy-3-+-Path-16-Copy-4-+-Path-16-Copy-5-+-Path-16-Copy-6-+-Path-16-Copy-7-+-Path-16-Copy-8-Mask" transform="translate(14.000000, 18.000000)">
                <mask id="mask-2" fill="white">
                    <use xlink:href="#path-1"></use>
                </mask>
                <use id="Mask" stroke="#623313" fill="#D59045" xlink:href="#path-1"></use>
                <path d="M10.173913,163.198515 L10.173913,-0.12814709" id="Path-16" stroke="#995A25" stroke-width="2" mask="url(#mask-2)"></path>
                <path d="M27.1304348,163.198515 L27.1304348,-0.12814709" id="Path-16-Copy" stroke="#995A25" stroke-width="2" mask="url(#mask-2)"></path>
                <path d="M44.0869565,163.198515 L44.0869565,-0.12814709" id="Path-16-Copy-2" stroke="#995A25" stroke-width="2" mask="url(#mask-2)"></path>
                <path d="M61.0434783,163.198515 L61.0434783,-0.12814709" id="Path-16-Copy-3" stroke="#995A25" stroke-width="2" mask="url(#mask-2)"></path>
                <path d="M78,163.198515 L78,-0.12814709" id="Path-16-Copy-4" stroke="#995A25" stroke-width="2" mask="url(#mask-2)"></path>
                <path d="M94.9565217,163.198515 L94.9565217,-0.12814709" id="Path-16-Copy-5" stroke="#995A25" stroke-width="2" mask="url(#mask-2)"></path>
                <path d="M111.913043,163.198515 L111.913043,-0.12814709" id="Path-16-Copy-6" stroke="#995A25" stroke-width="2" mask="url(#mask-2)"></path>
                <path d="M128.869565,163.198515 L128.869565,-0.12814709" id="Path-16-Copy-7" stroke="#995A25" stroke-width="2" mask="url(#mask-2)"></path>
                <path d="M145.826087,163.198515 L145.826087,-0.12814709" id="Path-16-Copy-8" stroke="#995A25" stroke-width="2" mask="url(#mask-2)"></path>
            </g>
            <path d="M23.8478261,122.128147 L23.8478261,63.1281471" id="Path-16-Copy-17" stroke="#995A25" stroke-width="2"></path>
            <path d="M40.8478261,181.326662 L40.8478261,50.1281471" id="Path-16-Copy-16" stroke="#995A25" stroke-width="2"></path>
            <path d="M58,181 L58,41" id="Path-16-Copy-15" stroke="#995A25" stroke-width="2"></path>
            <path d="M74.8478261,181.326662 L74.8478261,26.1281471" id="Path-16-Copy-14" stroke="#995A25" stroke-width="2"></path>
            <path d="M92,181 L92,18" id="Path-16-Copy-13" stroke="#995A25" stroke-width="2"></path>
            <path d="M108.847826,181.326662 L108.847826,23.1281471" id="Path-16-Copy-12" stroke="#995A25" stroke-width="2"></path>
            <path d="M125.847826,181.326662 L125.847826,36.1281471" id="Path-16-Copy-11" stroke="#995A25" stroke-width="2"></path>
            <path d="M142.847826,181.326662 L142.847826,48.1281471" id="Path-16-Copy-10" stroke="#995A25" stroke-width="2"></path>
            <path d="M159.847826,137.128147 L159.847826,64.1281471" id="Path-16-Copy-9" stroke="#995A25" stroke-width="2"></path>
            <g id="Rectangle-3-Copy">
                <use fill="#B7591B" fill-rule="evenodd" xlink:href="#path-3"></use>
                <path stroke="#733200" stroke-width="1" d="M107.2874,8.09602653 L101.320872,0.691554783 L0.712600173,76.9039735 L6.67912831,84.3084452 L107.2874,8.09602653 Z"></path>
            </g>
            <g id="Rectangle-3" opacity="0.15794837" fill="black" fill-opacity="1">
                <use filter="url(#filter-5)" xlink:href="#path-4"></use>
            </g>
            <g id="Rectangle-3-Copy-3" opacity="0.15794837" fill="black" fill-opacity="1">
                <use filter="url(#filter-7)" xlink:href="#path-6"></use>
            </g>
            <g id="Rectangle-3-Copy-2">
                <use fill="#B7591B" fill-rule="evenodd" xlink:href="#path-8"></use>
                <path stroke="#733200" stroke-width="1" d="M83.6791283,0.691554783 L77.7126002,8.09602653 L178.320872,84.3084452 L184.2874,76.9039735 L83.6791283,0.691554783 Z"></path>
            </g>
            <g id="Oval-4-Copy" transform="translate(62.000000, 101.000000)">
                <mask id="mask-10" fill="white">
                    <use xlink:href="#path-9"></use>
                </mask>
                <use id="Mask" fill="#4F260A" xlink:href="#path-9"></use>
                <path d="M18.3286206,102.111273 C26.2870198,102.111273 36.9776427,102.111273 41.504256,102.111273 C43.4364264,94.2087953 45.8630137,85.9075415 45.8630137,71.1279238 C45.8630137,43.5108685 39.0639355,21.4897959 14.8630137,21.4897959 C-9.33790809,21.4897959 -16.1369863,43.5108685 -16.1369863,71.1279238 C-16.1369863,83.7202416 -11.4528256,97.5832708 -10.1009569,102.111273 C9.82707097,102.111273 9.01423381,102.111273 18.3286206,102.111273 Z" stroke="#623313" fill="#63310E" mask="url(#mask-10)"></path>
            </g>
            <path d="M38.4628517,177.674223 L86.6779214,183.889367 L86.7534164,183.946543 C87.6343116,181.048563 90.5014607,179.115262 94.0922089,178.693732 C98.7726139,178.144283 102.350296,180.43713 102.924978,184.91203 C103.373017,188.4008 101.788934,191.605368 98.8510673,193.108693 L98.936877,193.173681 C98.0027826,193.708487 97.4591643,194.157608 97.3060222,194.521042 C97.2093183,194.750539 97.2066859,195.092128 97.2981252,195.545811 C97.3552691,195.737003 97.406018,195.93334 97.4501643,196.134751 C97.48152,196.237377 97.5162475,196.344021 97.5543466,196.454682 L97.5155774,196.463813 C97.541533,196.60895 97.5641829,196.756566 97.5834554,196.906637 C98.1581368,201.381537 95.3895435,205.388866 90.7091386,205.938314 C86.367456,206.447999 82.3874537,203.746606 81.3754014,199.780969 L80.2603894,198.484879 L36.8279946,192.464482 L36.5927673,192.294156 C35.1084289,195.044022 31.2339847,197.293417 27.7148033,197.706545 C23.0343983,198.255994 17.6800066,195.686986 17.1053252,191.212085 C16.5306437,186.737185 18.3010707,184.544251 22.5787731,182.758862 C22.5900137,182.75417 22.6012742,182.749513 22.6125544,182.744891 C22.5038773,182.684908 22.398986,182.618341 22.2982477,182.544664 C20.5394089,181.258308 20.0076719,177.883823 19.7164816,175.616397 C19.1418001,171.141496 24.2349442,168.639926 28.9153492,168.090477 C33.5957541,167.541029 37.310695,169.493323 37.8853765,173.968224 C38.0387241,175.162303 38.832502,176.599454 38.4628517,177.674223 Z" id="Combined-Shape-Copy" stroke="#979797" fill="#FFFFFF"></path>
            <g id="Path-17" transform="translate(14.000000, 159.000000)">
                <mask id="mask-12" fill="white">
                    <use xlink:href="#path-11"></use>
                </mask>
                <use id="Mask" fill="#FFFFFF" transform="translate(45.345005, 28.377400) rotate(-7.000000) translate(-45.345005, -28.377400) " xlink:href="#path-11"></use>
                <path d="M-1.36644704,22.7435748 C5.87896977,31.6287214 11.7453076,35.6435281 16.2325665,34.7879951 C22.9634549,33.5046956 21.4388968,31.9241022 26.9282573,32.9169949 C32.4176179,33.9098877 63.9230112,37.4889361 67.585915,38.6998777 C71.2488187,39.9108193 69.2953492,41.0552718 71.9110244,42.1957621 C78.0842863,43.1088764 78.407902,41.3551059 81.653791,40.8580856 C83.8177171,40.5267387 86.5482583,43.342723 89.8454147,49.3060383 L86.0982364,60.3610094 L12.5888489,50.627217 L-8.63485511,38.6998777 L-1.36644704,22.7435748 Z" fill="#D8D8D8" mask="url(#mask-12)"></path>
            </g>
            <g id="Path-18-Copy" transform="translate(69.000000, 60.000000)">
                <mask id="mask-14" fill="white">
                    <use xlink:href="#path-13"></use>
                </mask>
                <use id="Mask" stroke="#623313" fill="#4F260A" xlink:href="#path-13"></use>
                <path d="M13.5058634,8.1469784 C20.074458,8.1469784 27.484175,8.1469784 35.7350145,8.1469784 C36.9799424,5.29201335 38.9926495,0.223781454 44.8984594,1.99629546 C50.8042694,3.76880947 44.8984594,11.8060333 42.9393655,11.7511702 C45.8846466,13.0327121 50.5293174,16.9635466 44.8984594,20.7015704 C41.1445541,23.1935862 38.0900725,21.7809166 35.7350145,16.4635615 L13.5058634,16.4635615 C9.40244645,22.4997863 5.59125618,23.6076318 2.07229261,19.7870981 C-1.44667097,15.9665643 -0.483966049,13.252726 4.96040737,11.6455832 C0.246117404,6.51821545 0.246117404,3.30178619 4.96040737,1.99629546 C9.67469734,0.690804735 12.5231827,2.74103238 13.5058634,8.1469784 Z" fill="#63310E" mask="url(#mask-14)"></path>
            </g>
            <path d="M44,210 C44.8937079,210 51.8937079,206 65,198" id="Path-18" stroke="#4CAF50" transform="translate(54.500000, 204.000000) scale(-1, 1) translate(-54.500000, -204.000000) "></path>
        </g>
    </g>
</svg>