<?xml version="1.0" encoding="UTF-8"?>
<svg width="52px" height="60px" viewBox="0 0 52 60" version="1.1" xmlns="http://www.w3.org/2000/svg" xmlns:xlink="http://www.w3.org/1999/xlink">
    <!-- Generator: Sketch 48.2 (47327) - http://www.bohemiancoding.com/sketch -->
    <title>Group 4</title>
    <desc>Created with Sketch.</desc>
    <defs></defs>
    <g id="Page-1" stroke="none" stroke-width="1" fill="none" fill-rule="evenodd">
        <g id="Group-4" transform="translate(23.233056, 32.791723) rotate(37.000000) translate(-23.233056, -32.791723) translate(2.233056, -1.208277)">
            <path d="M13,27 L27,27 L22.8633042,65.0853762 C22.4785127,65.8180349 22.1140695,66.2939429 21.7699746,66.5131002 C21.4258797,66.7322574 20.7882841,66.8945574 19.8571877,67 C19.1335492,66.9724618 18.6154304,66.8504209 18.3028313,66.6338771 C17.9902322,66.4173334 17.6026982,65.9120104 17.1402293,65.1179081 L13,27 Z" id="Path-13" stroke="#979797" fill="#D8D8D8" transform="translate(20.000000, 47.000000) rotate(2.000000) translate(-20.000000, -47.000000) "></path>
            <g id="Group-3" transform="translate(0.000000, 20.000000)" fill="#E71313" stroke="#000000">
                <path d="M21.0915751,24.8486482 C33.0362994,24.8486482 41.947926,18.4649297 41.947926,14.0911172 C41.947926,11.1123687 38.7191679,4.49827424 31.8101476,2.14180668 C28.5743838,1.03818099 24.9014448,0.332130461 21.0915751,0.332130461 C17.39771,0.332130461 13.8740263,1.05060134 10.7685251,2.17252628 C3.83187419,4.67853134 0.251753418,11.0698912 0.251753418,14.0911172 C0.251753418,18.4649297 9.1468508,24.8486482 21.0915751,24.8486482 Z" id="Oval-3"></path>
            </g>
            <g id="Group-3-Copy" transform="translate(12.000000, 13.000000)" fill="#E71313" stroke="#000000">
                <path d="M-1.42108547e-14,13.1265217 L-1.42108547e-14,0.481465775 L17.9951904,0 L17.9951904,12.8105394 C17.9983886,12.8941931 18,12.9781869 18,13.0625 C18,17.2786023 13.9705627,18.6996808 9,18.6996808 C4.05468282,18.6996808 0.0409554251,17.293001 0.000311430258,13.1265248 Z" id="Oval-3"></path>
            </g>
            <g id="Group-3" transform="translate(8.000000, 0.000000)" fill="#E71313" stroke="#000000">
                <path d="M0.00343625708,8.86066789 L-1.42108547e-14,8.8606239 L-1.42108547e-14,6.11044488 L1.61268013,6.10326541 C3.82687234,4.25306728 8.09637749,3 13,3 C17.8140037,3 22.0168566,4.2076836 24.263869,6.00242487 L25.9930528,5.99472674 L25.9930528,8.80196782 C25.9976724,8.86771665 26,8.93373287 26,9 C26,12.3137085 20.1797017,15 13,15 C5.82029825,15 0,12.3137085 0,9 C0,8.95343014 0.00114954639,8.9069842 0.00343625708,8.86066789 Z" id="Oval-3"></path>
                <ellipse id="Oval-3" cx="13" cy="6" rx="13" ry="6"></ellipse>
            </g>
        </g>
    </g>
</svg>