<?xml version="1.0" encoding="UTF-8"?>
<svg width="281px" height="250px" viewBox="0 0 281 250" version="1.1" xmlns="http://www.w3.org/2000/svg" xmlns:xlink="http://www.w3.org/1999/xlink">
    <!-- Generator: Sketch 48.2 (47327) - http://www.bohemiancoding.com/sketch -->
    <title>Group</title>
    <desc>Created with Sketch.</desc>
    <defs></defs>
    <g id="Page-1" stroke="none" stroke-width="1" fill="none" fill-rule="evenodd">
        <g id="Group-2" transform="translate(-67.000000, -83.000000)">
            <g id="Group" transform="translate(67.000000, 83.000000)">
                <ellipse id="Oval-7" fill="#D8D8D8" cx="140.5" cy="232" rx="140.5" ry="18"></ellipse>
                <path d="M56.9347667,102.529491 C62.5336735,100.153343 72.2979446,96.3321496 76.4576835,95.3010226 C91.0431824,91.6855309 92.4748861,90.5921617 112.953394,90.5921617 C101.626021,61.7408554 105.179108,36.2644193 123.612653,14.1628535 C129.475115,11.6737126 134.638201,9.86229751 139.101911,8.72860836 C149.225312,6.15747582 164.248099,3.22775846 169.960455,2.30282795 C174.637943,1.54546073 183.827877,1.1400075 190.507263,0.818515465 C195.089184,0.597978534 201.980316,0.597978534 211.18066,0.818515465 C227.260563,13.9446518 237.229378,28.4941829 241.087105,44.4671088 C244.944831,60.4400346 242.819546,78.4847576 234.711247,98.6012777 C239.447378,108.223902 242.531004,122.085508 243.962125,140.186097 C246.108806,167.336981 241.087105,218.122755 241.087105,222.676429 C241.087105,227.230104 230.631839,238.398552 222.758297,224.995166 C217.509269,216.059575 214.036661,202.499289 212.340474,184.314306 L203.872315,187.4327 C203.291665,201.583443 202.345212,211.687168 201.032955,217.743876 C199.064569,226.828938 198.126733,230.611484 195.526289,231.713352 C192.925845,232.81522 183.33264,235.476284 179.705212,226.016801 C177.286927,219.710479 175.105775,209.339904 173.161756,194.905076 C142.146504,197.715086 121.026623,198.001767 109.802112,195.76512 C106.271134,195.061521 102.928536,194.197756 99.7743159,193.173824 C99.7743159,202.556343 99.3190673,212.390545 98.4085702,222.676429 C96.1204408,228.701044 92.9767888,231.713352 88.9776141,231.713352 C82.9788522,231.713352 79.4378977,231.938896 76.4576835,222.676429 C74.470874,216.501452 71.4344967,206.261627 67.3485514,191.956955 L60.3156738,216.202509 C57.3411056,223.868039 53.8159006,229.03832 49.7400588,231.713352 C43.626296,235.725898 35.7598856,230.484002 35.7233349,222.676429 C35.6867843,214.868856 35.2258897,161.426475 35.7233349,160.046466 C36.2207802,158.666456 34.4173182,139.346324 35.7233349,132.12891 C25.5007456,130.978011 19.3174474,129.402768 16.2766127,121.42938 C14.1638153,115.889403 12.2401955,107.712729 16.2766127,100.153343 C18.0495919,96.8329142 20.4245361,92.8846187 25.3634578,90.5921617 C41.5464756,83.0806289 54.1626859,97.0456469 56.9347667,102.529491 Z" id="Path-2" stroke="#EAA23D" fill="#FFEED6"></path>
                <path d="M215.756895,59.3975205 C222.584858,64.1946617 229.722011,72.4764451 231.258595,75.1576597 C232.795179,77.8388744 240.787342,95.2386905 221.129475,102.452331 C201.471608,109.665972 195.040901,109.482459 173.49005,113.003499 C173.09162,113.068595 144.303172,115.002053 143.9198,114.956917 C119.005183,112.023604 119.765368,93.8355188 123.647709,85.1444517 C126.235936,79.3504069 128.452849,75.2229938 130.298448,72.7622123 C122.107002,71.0109978 117.810604,67.1557432 117.409254,61.1964484 C116.807229,52.2575063 120.539887,42.511085 132.663445,43.3726952 C140.745816,43.947102 145.443915,48.8513981 146.757742,58.0855835 C155.70753,52.003574 163.917103,48.5702763 171.386462,47.7856903 C178.855821,47.0011044 187.014163,47.3933973 195.861486,48.9625693 C194.973271,39.5107244 198.063024,33.612598 205.130745,31.2681899 C209.168286,29.928912 214.148097,30.0045345 217.454846,31.2681899 C223.213015,33.4686418 226.580558,39.212936 225.127873,45.7150493 C222.840955,55.9511368 221.129475,55.8707159 215.756895,59.3975205 Z" id="Path-3" fill="#653D12"></path>
                <path d="M123.01091,13.7676968 C120.833182,21.0903648 118.833785,27.5152132 117.012718,33.0422418 C115.504447,37.6199207 109.396278,51.3198897 108.253706,56.2986125 C107.23203,60.7505345 107.301756,64.9690279 107.026433,65.8429367 C104.354789,64.790804 102.319023,59.5585537 100.164534,57.9034692 C90.7964832,50.7069057 84.269795,46.1689911 81.4366933,35.0846567 C90.8521754,27.2165253 98.9547727,23.9607364 103.53928,21.8450328 C108.390808,19.6061019 114.881351,16.9136566 123.01091,13.7676968 Z" id="Path-4" fill="#693B14"></path>
                <path d="M208.453273,0.648187487 C220.429833,17.0266137 228.260865,27.9631672 231.946367,33.4578482 C234.150551,36.7440455 235.832262,41.2430059 237.268867,43.5871486 C239.010043,41.3786902 241.955714,34.3234977 243.683597,31.4575265 C246.047843,27.536047 249.18643,22.4391541 253.099358,16.1668479 C254.394179,10.7409524 252.212275,7.1613812 246.553648,5.42813438 C243.24299,4.41407447 236.235367,2.76719169 228.104105,1.84892856 C224.259561,1.41476432 217.709284,1.0145173 208.453273,0.648187487 Z" id="Path-5" fill="#693B14"></path>
                <path d="M38.2497435,123.124151 C39.2781648,120.01834 40.1774268,116.781456 42.3870647,113.949696 C43.9267346,111.976532 46.8353673,109.136292 49.6037258,107.340438 C46.7200565,108.105383 43.9201497,110.308469 41.2040055,113.949696 C39.3935007,116.31974 38.4087467,119.377892 38.2497435,123.124151 Z" id="Path-6" fill="#B3A58F"></path>
                <path d="M38.9473506,117.628711 C12.0956747,123.5544 21.1142557,92.1598865 35.3414019,93.9395444 C47.2488331,95.4290318 40.484768,114.533538 29.8818971,104.512634 C32.9239548,106.802569 35.5099763,107.411606 37.6399616,106.339743 C40.8349395,104.73195 42.3992239,97.9493829 38.7058794,95.8762254 C36.4629177,94.6172005 33.8211334,94.5375342 32.3751962,94.7464755 C31.0601031,94.9365095 29.6199809,95.5978265 28.0548296,96.7304265 C25.3035711,98.6859637 23.4308307,102.058892 22.4366085,106.849211 C22.1627661,109.698684 22.514119,112.027347 23.7358507,113.832291 C24.9575823,115.637234 24.8679794,115.377544 26.4003477,116.406392 C29.2236321,117.88404 28.9326209,117.628711 31.658219,117.847373 C33.0813709,117.927178 35.5808543,117.608282 39.1566692,116.890684" id="Path-7" fill="#B3A58F"></path>
                <circle id="Oval" fill="#412717" cx="132.5" cy="58.5" r="10.5"></circle>
                <circle id="Oval" fill="#FFFFFF" cx="130.5" cy="55.5" r="5.5"></circle>
                <circle id="Oval" fill="#412717" cx="209.5" cy="43.5" r="10.5"></circle>
                <circle id="Oval" fill="#FFFFFF" cx="209.5" cy="40.5" r="5.5"></circle>
                <ellipse id="Oval-2" fill="#3A1C05" transform="translate(172.000000, 47.500000) rotate(-8.000000) translate(-172.000000, -47.500000) " cx="172" cy="47.5" rx="8" ry="3.5"></ellipse>
                <path d="M171.017509,85.3979424 C177.692637,85.0017643 182.522393,83.9146466 185.506777,82.1365896 C185.506777,88.4036773 185.506777,92.7023289 185.506777,95.0325445 C184.617155,98.1924805 182.202277,99.7926132 178.262143,99.8329427 C174.322009,99.8732722 172.022409,96.923948 171.363344,90.9849701 L171.017509,85.3979424 Z" id="Path-10" fill="#EF9390"></path>
                <path d="M173.544035,58.0563117 C174.93481,67.0035329 176.325585,75.950754 177.71636,84.8979751" id="Path-8" stroke="#3A1C05" stroke-width="2"></path>
                <path d="M158.714043,74.6177945 C163.97823,82.9245166 170.387954,86.1971614 177.943214,84.4357287 C189.276103,81.7935798 194.737491,74.0055782 194.62006,68.1063671" id="Path-9" stroke="#3A1C05" stroke-width="2"></path>
                <path d="M122.064349,35.802236 C127.616232,31.5549739 131.645399,28.7598885 134.151849,27.41698 C138.77361,24.9407279 143.404245,24.7177018 146.246872,24.7177018 C148.726802,24.7177018 153.310499,25.5323173 156.697876,27.41698 C159.133848,28.7723023 162.948577,31.8775068 168.142063,36.7325935 C163.441878,30.5503712 159.828545,26.6834749 157.302063,25.1319046 C154.19952,23.2265622 151.418577,21.1053715 145.103206,21.6121211 C138.787836,22.1188706 136.546104,24.1090282 132.892687,26.142394 C130.090715,27.7018751 126.481269,30.9218225 122.064349,35.802236 Z" id="Path-11" fill="#B9A890"></path>
                <path d="M170.323116,30.7092451 C175.406739,26.6683815 179.260737,24.1226826 181.885109,23.0721487 C186.724313,21.1350199 191.126624,20.403223 194.10299,20.403223 C196.699593,20.403223 201.232679,22.1929976 204.779423,23.6673364 C207.330003,24.7275814 211.41296,26.772557 217.028295,29.8022632 C212.106978,24.9660186 208.323646,21.941013 205.678299,20.7272466 C202.429789,19.2367305 199.51801,17.57736 192.905517,17.9737814 C186.293024,18.3702027 183.945824,19.9270683 180.120523,21.5177348 C177.186725,22.7376898 173.920923,25.8015265 170.323116,30.7092451 Z" id="Path-11-Copy" fill="#B9A890" transform="translate(193.675705, 24.311763) rotate(-17.000000) translate(-193.675705, -24.311763) "></path>
                <path d="M68.1445376,191.631047 C69.6698027,190.52593 70.853688,189.743859 71.6961935,189.284832 C74.1705916,187.936694 76.874134,186.691204 79.2521928,183.70643 C81.2486058,181.200672 82.6496318,176.096439 82.9008531,173.833318 C83.0555175,172.440029 83.0555175,170.45036 82.9008531,167.864312" id="Path-12" stroke="#B6A990"></path>
            </g>
        </g>
    </g>
</svg>