<?xml version="1.0" encoding="UTF-8"?>
<svg width="172px" height="128px" viewBox="0 0 172 128" version="1.1" xmlns="http://www.w3.org/2000/svg" xmlns:xlink="http://www.w3.org/1999/xlink">
    <!-- Generator: Sketch 48.2 (47327) - http://www.bohemiancoding.com/sketch -->
    <title>pug</title>
    <desc>Created with Sketch.</desc>
    <defs></defs>
    <g id="Page-1" stroke="none" stroke-width="1" fill="none" fill-rule="evenodd">
        <g id="pug" transform="translate(0.000000, 1.000000)">
            <path d="M98.7884745,124.703719 C82.9673972,127.027736 42.6959161,131.475798 31.2628404,97.948165 C19.9354675,69.0968587 23.7464928,40.9507173 42.6959161,13.5097408 C48.5583775,11.0205998 53.7214632,9.20918475 58.1851733,8.0754956 C68.3085746,5.50436306 83.3313613,2.57464569 89.0437178,1.64971518 C93.7212061,0.892347964 102.91114,0.486894731 109.590525,0.165402698 C114.172446,-0.0551342328 121.063579,-0.0551342328 130.263922,0.165402698 C146.343826,13.291539 156.312641,27.8410702 160.170367,43.813996 C165.956957,67.7733848 167.795076,78.6456052 154.748595,101.191531 C143.698319,113.89324 143.267399,113.453191 115.15944,121.598421 C110.221959,123.029222 105.969669,123.648846 98.7884745,124.703719 Z" id="Path-2" stroke="#EAA23D" fill="#FFEED6"></path>
            <path d="M134.409055,59.1056364 C141.237017,63.9027777 148.37417,72.184561 149.910754,74.8657757 C151.447339,77.5469904 159.439502,94.9468065 139.781634,102.160447 C120.123767,109.374088 113.69306,109.190575 92.1422097,112.711615 C91.7437795,112.776711 62.955331,114.710169 62.5719595,114.665033 C37.6573423,111.73172 38.4175276,93.5436348 42.2998684,84.8525677 C44.8880956,79.0585229 47.1050085,74.9311098 48.9506072,72.4703282 C40.7591614,70.7191138 36.4627634,66.8638592 36.0614133,60.9045644 C35.4593882,51.9656223 39.1920468,42.219201 51.3156041,43.0808112 C59.3979757,43.655218 64.0960748,48.5595141 65.4099015,57.7936995 C74.3596891,51.71169 82.5692624,48.2783923 90.0386216,47.4938063 C97.5079807,46.7092203 105.666322,47.1015133 114.513646,48.6706853 C113.625431,39.2188404 116.715184,33.3207139 123.782905,30.9763059 C127.820445,29.637028 132.800257,29.7126505 136.107005,30.9763059 C141.865174,33.1767578 145.232717,38.921052 143.780033,45.4231653 C141.493114,55.6592528 139.781634,55.5788319 134.409055,59.1056364 Z" id="Path-3" fill="#653D12"></path>
            <path d="M41.5742167,14 C39.396489,21.322668 37.3970918,27.7475164 35.5760252,33.274545 C34.067754,37.8522239 27.959585,51.5521928 26.8170129,56.5309157 C25.7953368,60.9828377 25.8650628,65.2013311 25.5897395,66.0752399 C22.9180957,65.0231071 20.8823293,59.7908569 18.7278405,58.1357724 C9.35978991,50.9392089 2.83310174,46.4012943 0,35.3169599 C9.41548216,27.4488285 17.5180795,24.1930396 22.1025868,22.077336 C26.9541146,19.8384051 33.4446579,17.1459598 41.5742167,14 Z" id="Path-4" fill="#693B14"></path>
            <path d="M127,0 C138.97656,16.3784262 146.807591,27.3149798 150.493094,32.8096607 C152.697278,36.095858 154.378989,40.5948184 155.815594,42.9389612 C157.55677,40.7305027 160.502441,33.6753102 162.230324,30.809339 C164.594569,26.8878595 167.733156,21.7909666 171.646085,15.5186604 C172.940905,10.0927649 170.759002,6.51319371 165.100375,4.77994689 C161.789717,3.76588699 154.782093,2.1190042 146.650832,1.20074107 C142.806288,0.766576838 136.256011,0.366329813 127,0 Z" id="Path-5" fill="#693B14"></path>
            <path d="M41,35.2661749 C46.5518828,31.0189128 50.5810493,28.2238274 53.0874995,26.8809189 C57.7092606,24.4046668 62.3398961,24.1816407 65.1825231,24.1816407 C67.6624522,24.1816407 72.2461499,24.9962562 75.6335264,26.8809189 C78.0694991,28.2362412 81.8842282,31.3414457 87.0777136,36.1965324 C82.3775288,30.0143101 78.7641954,26.1474138 76.2377133,24.5958435 C73.1351704,22.6905011 70.3542273,20.5693104 64.0388568,21.07606 C57.7234863,21.5828095 55.4817545,23.5729671 51.8283379,25.6063329 C49.0263658,27.165814 45.4169199,30.3857614 41,35.2661749 Z" id="Path-11" fill="#B9A890"></path>
            <circle id="Oval" fill="#412717" cx="51.5" cy="58.5" r="10.5"></circle>
            <circle id="Oval" fill="#FFFFFF" cx="49.5" cy="55.377571" r="5.5"></circle>
            <circle id="Oval" fill="#412717" cx="128.5" cy="43.377571" r="10.5"></circle>
            <circle id="Oval" fill="#FFFFFF" cx="128.5" cy="40.377571" r="5.5"></circle>
            <ellipse id="Oval-2" fill="#3A1C05" transform="translate(91.409250, 47.456894) rotate(-8.000000) translate(-91.409250, -47.456894) " cx="91.4092504" cy="47.4568941" rx="8" ry="3.5"></ellipse>
            <path d="M90,85.1389238 C96.6751275,84.7427457 101.504883,83.6556281 104.489267,81.877571 C104.489267,88.1446587 104.489267,92.4433104 104.489267,94.7735259 C103.599646,97.9334619 101.184768,99.5335946 97.2446336,99.5739241 C93.3044995,99.6142537 91.0048997,96.6649295 90.3458344,90.7259516 L90,85.1389238 Z" id="Path-10" fill="#EF9390"></path>
            <path d="M93,57.877571 C94.3907751,66.8247921 95.7815502,75.7720132 97.1723254,84.7192343" id="Path-8" stroke="#3A1C05" stroke-width="2"></path>
            <path d="M78,74.3889984 C83.2641876,82.6957205 89.6739114,85.9683653 97.2291712,84.2069327 C108.562061,81.5647837 114.023448,73.7767821 113.906018,67.877571" id="Path-9" stroke="#3A1C05" stroke-width="2"></path>
            <path d="M88.8500457,31.220632 C93.9336686,27.1797683 97.7876663,24.6340695 100.412039,23.5835355 C105.251242,21.6464067 109.653554,20.9146098 112.629919,20.9146098 C115.226523,20.9146098 119.759609,22.7043845 123.306353,24.1787232 C125.856932,25.2389682 129.939889,27.2839438 135.555224,30.3136501 C130.633907,25.4774054 126.850576,22.4523999 124.205229,21.2386335 C120.956719,19.7481174 118.044939,18.0887469 111.432446,18.4851682 C104.819953,18.8815895 102.472753,20.4384551 98.6474526,22.0291217 C95.7136546,23.2490766 92.4478523,26.3129134 88.8500457,31.220632 Z" id="Path-11-Copy" fill="#B9A890" transform="translate(112.202635, 24.823150) rotate(-17.000000) translate(-112.202635, -24.823150) "></path>
        </g>
    </g>
</svg>