<?xml version="1.0" encoding="UTF-8"?>
<svg width="223px" height="222px" viewBox="0 0 223 222" version="1.1" xmlns="http://www.w3.org/2000/svg" xmlns:xlink="http://www.w3.org/1999/xlink">
    <!-- Generator: Sketch 48.2 (47327) - http://www.bohemiancoding.com/sketch -->
    <title>Group 7</title>
    <desc>Created with Sketch.</desc>
    <defs></defs>
    <g id="Page-1" stroke="none" stroke-width="1" fill="none" fill-rule="evenodd">
        <g id="Group-7">
            <polygon id="Triangle-2" stroke="#979797" fill="#FBC507" points="110.5 0 129 57 92 57"></polygon>
            <polygon id="Triangle-2-Copy-3" stroke="#979797" fill="#FBC507" transform="translate(110.500000, 193.500000) rotate(180.000000) translate(-110.500000, -193.500000) " points="110.5 165 129 222 92 222"></polygon>
            <polygon id="Triangle-2-Copy-4" stroke="#979797" fill="#FBC507" transform="translate(152.312831, 42.791087) rotate(39.000000) translate(-152.312831, -42.791087) " points="152.312831 14.2910871 170.812831 71.2910871 133.812831 71.2910871"></polygon>
            <polygon id="Triangle-2-Copy-5" stroke="#979797" fill="#FBC507" transform="translate(179.931724, 70.271470) rotate(60.000000) translate(-179.931724, -70.271470) " points="179.931724 41.77147 198.431724 98.77147 161.431724 98.77147"></polygon>
            <polygon id="Triangle-2-Copy-6" stroke="#979797" fill="#FBC507" transform="translate(180.931724, 151.271470) rotate(120.000000) translate(-180.931724, -151.271470) " points="180.931724 122.77147 199.431724 179.77147 162.431724 179.77147"></polygon>
            <polygon id="Triangle-2-Copy-7" stroke="#979797" fill="#FBC507" transform="translate(149.271470, 180.931724) rotate(150.000000) translate(-149.271470, -180.931724) " points="149.27147 152.431724 167.77147 209.431724 130.77147 209.431724"></polygon>
            <polygon id="Triangle-2-Copy-8" stroke="#979797" fill="#FBC507" transform="translate(69.271470, 179.931724) rotate(210.000000) translate(-69.271470, -179.931724) " points="69.27147 151.431724 87.77147 208.431724 50.77147 208.431724"></polygon>
            <polygon id="Triangle-2-Copy-9" stroke="#979797" fill="#FBC507" transform="translate(39.500000, 152.271470) rotate(240.000000) translate(-39.500000, -152.271470) " points="39.5 123.77147 58 180.77147 21 180.77147"></polygon>
            <polygon id="Triangle-2-Copy-10" stroke="#979797" fill="#FBC507" transform="translate(34.931724, 70.271470) rotate(300.000000) translate(-34.931724, -70.271470) " points="34.931724 41.77147 53.431724 98.77147 16.431724 98.77147"></polygon>
            <polygon id="Triangle-2-Copy-11" stroke="#979797" fill="#FBC507" transform="translate(66.271470, 39.931724) rotate(330.000000) translate(-66.271470, -39.931724) " points="66.27147 11.431724 84.77147 68.431724 47.77147 68.431724"></polygon>
            <polygon id="Triangle-2-Copy" stroke="#979797" fill="#FBC507" transform="translate(194.500000, 111.500000) rotate(90.000000) translate(-194.500000, -111.500000) " points="194.5 83 213 140 176 140"></polygon>
            <polygon id="Triangle-2-Copy-2" stroke="#979797" fill="#FBC507" transform="translate(28.500000, 110.500000) rotate(270.000000) translate(-28.500000, -110.500000) " points="28.5 82 47 139 10 139"></polygon>
            <circle id="Oval-6" stroke="#F4AD0E" fill="#FBD107" cx="111" cy="111" r="65"></circle>
        </g>
    </g>
</svg>